<svg xmlns="http://www.w3.org/2000/svg" width="34" height="39" viewBox="0 0 34 39" fill="none">
  <path d="M6.50857 0.00985571C5.86447 0.112911 5.2877 0.467613 4.90512 0.995929C4.52255 1.52425 4.36552 2.1829 4.46857 2.827C4.57163 3.4711 4.92633 4.04787 5.45465 4.43045C5.98296 4.81302 6.64162 4.97005 7.28571 4.867H9.71429V14.5813H4.85714C2.18571 14.5813 0 16.767 0 19.4384H14.5714V34.0099L16.7086 38.867L19.4286 34.0099V19.4384H34C34 16.767 31.8143 14.5813 29.1429 14.5813H24.2857V4.867H26.7143C27.3584 4.867 27.9761 4.61113 28.4315 4.15569C28.887 3.70024 29.1429 3.08252 29.1429 2.43843C29.1429 1.79433 28.887 1.17661 28.4315 0.721168C27.9761 0.265722 27.3584 0.00985571 26.7143 0.00985571H7.28571C7.1403 -0.00328524 6.99399 -0.00328524 6.84857 0.00985571C6.75152 0.00402189 6.6542 0.00402189 6.55714 0.00985571L6.50857 0.00985571Z" fill="#494949"/>
</svg>