<svg xmlns="http://www.w3.org/2000/svg" width="37" height="37" viewBox="0 0 37 37" fill="none">
  <path d="M27.75 0V4.625H25.4375C23.8188 4.625 22.8475 5.0875 21.83 6.3825L15.3087 14.615L8.2325 6.3825C7.215 5.18 6.1975 4.625 4.625 4.625H0V9.25H4.625C4.39375 9.25 4.67125 9.435 4.76375 9.38875L12.3025 18.2225L4.625 27.75H0V32.375H4.625C6.24375 32.375 7.215 31.9125 8.2325 30.6175L15.3087 21.7838L22.9862 30.6175C24.0037 31.82 25.0212 32.375 26.5938 32.375H27.75V37L37 30.0625L27.75 23.125V27.75H26.7325C26.6863 27.7038 26.5012 27.565 26.455 27.6112L18.3613 18.0838L25.4375 9.25H27.75V13.875L37 6.9375L27.75 0Z" fill="#494949"/>
</svg>